<svg width="49" height="50" viewBox="0 0 49 50" fill="none" xmlns="http://www.w3.org/2000/svg">
<path fill-rule="evenodd" clip-rule="evenodd" d="M24.3902 0C10.9146 0 0 11.2619 0 25.1663C0 36.3024 6.98171 45.7083 16.6768 49.0428C17.8963 49.263 18.3537 48.508 18.3537 47.8474C18.3537 47.2497 18.3232 45.2679 18.3232 43.1602C12.1951 44.3242 10.6098 41.6188 10.122 40.2032C9.84756 39.4796 8.65854 37.2461 7.62195 36.6484C6.76829 36.1766 5.54878 35.0126 7.59146 34.9812C9.51219 34.9497 10.8841 36.8057 11.3415 37.5607C13.5366 41.3671 17.0427 40.2975 18.4451 39.6369C18.6585 38.0011 19.2988 36.9001 20 36.2709C14.5732 35.6418 8.90244 33.4712 8.90244 23.8451C8.90244 21.1082 9.84756 18.8433 11.4024 17.0816C11.1585 16.4525 10.3049 13.8729 11.6463 10.4126C11.6463 10.4126 13.689 9.75194 18.3537 12.9921C20.3049 12.4259 22.378 12.1427 24.4512 12.1427C26.5244 12.1427 28.5976 12.4259 30.5488 12.9921C35.2134 9.72049 37.2561 10.4126 37.2561 10.4126C38.5976 13.8729 37.7439 16.4525 37.5 17.0816C39.0549 18.8433 40 21.0768 40 23.8451C40 33.5026 34.2988 35.6418 28.872 36.2709C29.7561 37.0574 30.5183 38.5674 30.5183 40.9267C30.5183 44.2927 30.4878 46.9981 30.4878 47.8474C30.4878 48.508 30.9451 49.2945 32.1646 49.0428C41.7988 45.7083 48.7805 36.2709 48.7805 25.1663C48.7805 11.2619 37.8659 0 24.3902 0Z" fill="#FAFAFA"/>
</svg>
